<svg xmlns="http://www.w3.org/2000/svg" xmlns:xlink="http://www.w3.org/1999/xlink" preserveAspectRatio="xMidYMid meet" version="1.0" viewBox="4.0 4.0 41.0 40.0" zoomAndPan="magnify" style="fill: rgb(229, 229, 229);" original_string_length="551" width="53.82165894639931px" height="52.54951064402987px"><g><path d="M0,0H48V48H0Z" style="fill: none;"/><g id="__id0_s38ogw3boo"><path d="M12,44H6a2,2,0,0,1-2-2V6A2,2,0,0,1,6,4h6a2,2,0,0,1,2,2V42A2,2,0,0,1,12,44ZM8,40h2V8H8Z" style="fill: inherit;"/></g><g id="__id1_s38ogw3boo"><path d="M30,34A15,15,0,1,1,45,19,15.017,15.017,0,0,1,30,34ZM30,8A11,11,0,1,0,41,19,11.013,11.013,0,0,0,30,8Z" style="fill: inherit;"/></g></g></svg>